<?xml version="1.0" standalone="no"?>
<!DOCTYPE svg PUBLIC "-//W3C//DTD SVG 20010904//EN"
 "http://www.w3.org/TR/2001/REC-SVG-20010904/DTD/svg10.dtd">
<svg version="1.0" xmlns="http://www.w3.org/2000/svg"
 width="2000.000000pt" height="2000.000000pt" viewBox="0 0 2000.000000 2000.000000"
 preserveAspectRatio="xMidYMid meet">

<g transform="translate(0.000000,2000.000000) scale(0.100000,-0.100000)"
fill="#000000" stroke="none">
<path d="M9340 19484 c-300 -173 -804 -465 -1120 -647 l-575 -332 -1278 -5
-1279 -5 -636 -1101 -636 -1101 -1158 -669 -1158 -669 0 -1337 0 -1337 -651
-1128 c-359 -620 -654 -1136 -656 -1145 -3 -10 265 -484 651 -1153 l656 -1136
0 -1230 0 -1229 43 -26 c23 -14 503 -292 1066 -617 l1024 -592 727 -1260 728
-1260 1463 -5 1464 -5 60 -35 c33 -19 456 -263 939 -542 l880 -508 40 24 c23
13 447 258 944 545 l903 521 1565 2 1566 3 782 1353 781 1353 905 523 905 523
5 1054 5 1054 759 1314 c694 1202 758 1317 749 1340 -6 14 -349 611 -762 1326
l-751 1300 0 1155 0 1155 -995 574 c-548 316 -1000 580 -1006 587 -6 7 -318
545 -694 1196 l-683 1183 -1381 3 -1381 2 -1125 650 c-619 358 -1128 650
-1132 650 -5 0 -253 -143 -553 -316z m4331 -3031 l3719 -2148 0 -4305 0 -4306
-3721 -2148 c-2047 -1182 -3728 -2149 -3735 -2150 -7 0 -1689 967 -3738 2149
l-3726 2150 0 4305 0 4305 3728 2152 c2050 1184 3733 2150 3741 2147 7 -2
1687 -970 3732 -2151z m-6456 1803 c-244 -144 -3008 -1736 -3011 -1734 -1 2
225 398 504 881 l506 877 1021 0 1020 0 -40 -24z m8120 -928 c613 -1059 580
-1002 568 -995 -4 2 -762 440 -1683 972 -921 532 -1677 969 -1679 971 -2 2
502 4 1120 4 l1124 0 550 -952z m3609 -6250 c339 -587 616 -1072 616 -1078 0
-9 -1192 -2081 -1251 -2175 -18 -29 -19 11 -19 2175 0 2165 1 2204 19 2175 11
-16 296 -510 635 -1097z m-17446 -1997 l-3 -919 -525 910 c-289 500 -525 918
-525 928 0 10 236 428 525 928 l525 910 3 -919 c1 -505 1 -1333 0 -1838z
m13940 -6230 l-653 -1131 -1310 0 c-1140 1 -1307 3 -1285 15 14 8 896 518
1960 1133 1064 616 1936 1118 1938 1116 2 -1 -290 -511 -650 -1133z m-9613
-91 c968 -559 1769 -1022 1780 -1028 15 -9 -269 -11 -1185 -12 l-1205 0 -598
1035 c-328 569 -597 1037 -597 1040 0 8 -116 74 1805 -1035z"/>
<path d="M6298 16293 l-3628 -2095 0 -4198 0 -4198 3631 -2096 3631 -2096
3634 2097 3634 2098 0 4192 0 4193 -37 24 c-52 33 -7216 4168 -7228 4171 -5 2
-1642 -940 -3637 -2092z m6666 -6211 c759 -2017 1381 -3673 1384 -3679 3 -10
-215 -13 -1070 -13 l-1074 0 -138 418 c-76 229 -167 508 -204 620 l-67 202
-1299 -2 -1298 -3 -208 -615 -207 -615 -1056 -3 -1055 -2 92 242 c51 134 681
1790 1401 3681 l1308 3437 1056 0 1056 -1 1379 -3667z"/>
<path d="M10491 11458 c-217 -636 -741 -2197 -741 -2206 0 -9 182 -12 755 -12
415 0 755 3 755 8 0 8 -741 2265 -745 2270 -2 2 -12 -25 -24 -60z"/>
</g>
</svg>
